<?xml version="1.0" encoding="utf-8"?>
<!-- Generator: Adobe Illustrator 16.0.0, SVG Export Plug-In . SVG Version: 6.00 Build 0)  -->
<!DOCTYPE svg PUBLIC "-//W3C//DTD SVG 1.1//EN" "http://www.w3.org/Graphics/SVG/1.1/DTD/svg11.dtd">
<svg version="1.1" id="Layer_1" xmlns="http://www.w3.org/2000/svg" xmlns:xlink="http://www.w3.org/1999/xlink" x="0px" y="0px"
	 width="215.75px" height="25.848px" viewBox="0 0 215.75 25.848" enable-background="new 0 0 215.75 25.848" xml:space="preserve">
<g>
	<polygon fill="#0D2858" points="38.41,23.692 38.41,4.329 62.447,4.329 62.447,8.129 42.238,8.129 42.238,12.09 58.732,12.09 
		58.732,15.889 42.238,15.889 42.238,19.893 62.447,19.893 62.447,23.692 	"/>
	<g>
		<path fill="#0D2858" d="M89.143,19.395c0,2.865-2.857,4.297-8.576,4.297h-6.861c-1.846,0-3.594-0.285-5.248-0.863
			c-2.234-0.805-3.352-1.947-3.352-3.434V4.329h3.823v14.045c0,1.014,1.595,1.52,4.776,1.52h6.861c3.17,0,4.75-0.506,4.75-1.52
			V4.329h3.826V19.395z"/>
		<path fill="#0D2858" d="M112,9.385c0-0.838-1.586-1.256-4.75-1.256H95.615v5.225h14.272c0.405,0,0.837-0.09,1.294-0.246
			c0.543-0.213,0.818-0.492,0.818-0.84V9.385z M110.205,23.692L97.908,17.09h-2.293v6.602h-3.828V4.329h15.463
			c2.429,0,4.24,0.182,5.434,0.551c2.096,0.662,3.139,1.92,3.139,3.773v4.691c0,1.24-0.701,2.217-2.105,2.932
			c-1.164,0.576-2.438,0.867-3.829,0.867h-4.747l12.48,6.549H110.205z"/>
		<path fill="#0D2858" d="M164.644,9.727c0-1.064-1.592-1.598-4.771-1.598h-11.611v5.711h11.611c1.072,0,1.996-0.086,2.77-0.26
			c1.336-0.264,2.002-0.719,2.002-1.365V9.727z M168.472,13.344c0,1.605-1.102,2.777-3.297,3.512
			c-1.514,0.523-3.283,0.785-5.303,0.785h-11.611v6.053h-3.826V4.329h15.438c5.729,0,8.6,1.441,8.6,4.324V13.344z"/>
		<path fill="#0D2858" d="M190.806,9.649c0-1.014-1.531-1.52-4.594-1.52h-7.203c-2.988,0-4.484,0.506-4.484,1.52v8.779
			c0,0.977,1.496,1.465,4.484,1.465h7.203c3.063,0,4.594-0.488,4.594-1.465V9.649z M194.626,19.397c0,1.605-1.084,2.785-3.268,3.537
			c-1.566,0.506-3.344,0.76-5.328,0.76h-6.834c-1.887,0-3.641-0.279-5.281-0.838c-2.215-0.75-3.318-1.902-3.318-3.459V8.653
			c0-1.658,1.082-2.848,3.24-3.564c1.498-0.506,3.283-0.76,5.359-0.76h6.834c5.734,0,8.596,1.441,8.596,4.324V19.397z"/>
		<path fill="#0D2858" d="M136.326,4.461c-0.826-0.088-1.74-0.133-2.74-0.133h-6.836c-1.199,0-2.299,0.086-3.305,0.256
			c-0.734,0.123-1.422,0.289-2.053,0.504c-2.16,0.717-3.244,1.906-3.244,3.564v4.248c1.35-0.281,2.66-0.6,3.93-0.947V9.649
			c0-1.014,1.496-1.52,4.486-1.52h6.271c2.895-1.275,5.064-2.434,6.255-3.105C138.316,4.76,137.392,4.575,136.326,4.461"/>
		<path fill="#FFFFFF" d="M133.766,8.129c1.398,0,2.477,0.105,3.234,0.318c2-1.029,3.13-1.734,3.13-1.734s0.723,0.486,1.979,1.193
			c-0.262-1.336-1.27-2.297-3.018-2.885c-1.191,0.674-3.361,1.834-6.255,3.107H133.766z"/>
		<path fill="#FFFFFF" d="M122.078,11.954c-1.27,0.348-2.58,0.666-3.93,0.947v2.307c1.35-0.283,2.66-0.604,3.93-0.949V11.954z"/>
		<path fill="#0D2858" d="M137,8.448c0.902,0.252,1.357,0.652,1.357,1.201v0.385c1.145-0.625,1.773-1.014,1.773-1.014
			s0.752,0.502,2.051,1.229V8.653c0-0.262-0.025-0.51-0.07-0.746c-1.258-0.707-1.98-1.193-1.98-1.193S139,7.417,137,8.448"/>
		<path fill="#0D2858" d="M122.078,14.258c-1.27,0.346-2.58,0.666-3.93,0.949v2.303c1.35-0.281,2.66-0.602,3.93-0.947V14.258z"/>
		<path fill="#FFFFFF" d="M122.078,18.428v-1.865c-1.27,0.346-2.58,0.666-3.93,0.947v1.887c0,0.141,0.012,0.277,0.03,0.412
			c1.378-0.289,2.714-0.617,4.009-0.971C122.117,18.713,122.078,18.579,122.078,18.428"/>
		<path fill="#FFFFFF" d="M138.357,10.034v2.303c1.145-0.623,1.773-1.014,1.773-1.014s0.752,0.506,2.051,1.232v-2.307
			c-1.299-0.727-2.051-1.229-2.051-1.229S139.501,9.409,138.357,10.034"/>
		<path fill="#E9B514" d="M138.357,12.336v2.307c1.145-0.623,1.773-1.016,1.773-1.016s0.752,0.504,2.051,1.23v-2.303
			c-1.299-0.727-2.051-1.232-2.051-1.232S139.501,11.713,138.357,12.336"/>
		<path fill="#E9B514" d="M122.188,18.838c-1.295,0.354-2.631,0.682-4.009,0.971c0.106,0.789,0.524,1.467,1.259,2.025
			c2.428-0.557,4.723-1.229,6.84-1.943C123.922,19.864,122.557,19.514,122.188,18.838"/>
		<path fill="#FFFFFF" d="M126.564,19.893c-0.1,0-0.191,0-0.287-0.002c-2.117,0.715-4.412,1.387-6.84,1.945
			c0.521,0.396,1.197,0.736,2.031,1.02c0.457,0.156,0.926,0.287,1.4,0.4c3.551-1.012,6.742-2.223,9.389-3.363H126.564z"/>
		<path fill="#FFFFFF" d="M138.357,14.643v2.299c1.143-0.621,1.773-1.01,1.773-1.01s0.752,0.504,2.051,1.23v-2.305
			c-1.299-0.727-2.051-1.232-2.051-1.232S139.501,14.018,138.357,14.643"/>
		<path fill="#E9B514" d="M138.357,16.944v1.484c0,0.979-1.529,1.465-4.591,1.465h-1.508c-2.646,1.143-5.838,2.35-9.389,3.363
			c1.23,0.289,2.521,0.438,3.881,0.438h6.836c1.982,0,3.761-0.252,5.326-0.76c2.182-0.752,3.27-1.932,3.27-3.537v-2.234
			c-1.299-0.727-2.051-1.23-2.051-1.23S139.5,16.321,138.357,16.944"/>
	</g>
	<polygon fill="#0D2858" points="197.099,23.694 197.099,4.329 200.923,4.329 200.923,19.893 214.513,19.893 214.513,23.694 	"/>
	<g>
		<path fill="#0D2858" d="M30.371,6.36c0-1.068-0.873-1.936-1.949-1.936h-5.074c0.254,0.17,3.02,1.979,7.023,3.646V6.36z"/>
		<path fill="#0D2858" d="M3.705,4.424c-1.076,0-1.949,0.867-1.949,1.936v6.41c12.35-2.527,21.057-8.033,21.543-8.346H3.705z"/>
		<path fill="#FFFFFF" d="M30.371,10.374V8.071c-4.004-1.668-6.77-3.477-7.023-3.646h-0.049c-0.486,0.313-9.191,5.818-21.543,8.346
			v2.305c12.713-2.602,21.566-8.361,21.566-8.361S26.166,8.624,30.371,10.374"/>
		<path fill="#0D2858" d="M30.371,12.678v-2.305c-4.205-1.75-7.049-3.66-7.049-3.66s-8.854,5.76-21.566,8.359v2.307
			c12.713-2.6,21.566-8.361,21.566-8.361S26.166,10.93,30.371,12.678"/>
		<path fill="#FFFFFF" d="M30.371,14.983v-2.305c-4.205-1.748-7.049-3.658-7.049-3.658s-8.854,5.76-21.566,8.359v2.303
			c12.713-2.6,21.566-8.359,21.566-8.359S26.166,13.233,30.371,14.983"/>
		<path fill="#E9B514" d="M30.371,17.288v-2.305c-4.205-1.75-7.049-3.66-7.049-3.66s-8.854,5.76-21.566,8.359v2.104
			c0,0.068,0.004,0.135,0.01,0.199c12.707-2.602,21.557-8.357,21.557-8.357S26.166,15.54,30.371,17.288"/>
		<path fill="#FFFFFF" d="M30.371,19.592v-2.305c-4.205-1.748-7.049-3.66-7.049-3.66s-8.85,5.756-21.557,8.357
			c0.102,0.977,0.932,1.738,1.939,1.738h0.58c11.342-2.785,19.037-7.791,19.037-7.791S26.166,17.842,30.371,19.592"/>
		<path fill="#E9B514" d="M30.371,21.788v-2.195c-4.205-1.75-7.049-3.66-7.049-3.66s-7.695,5.004-19.037,7.791h24.137
			C29.498,23.723,30.371,22.856,30.371,21.788"/>
	</g>
</g>
</svg>
